<svg width="48" height="48" viewBox="0 0 48 48" fill="none" xmlns="http://www.w3.org/2000/svg">
<path d="M5.5 40.5H42.5C44.433 40.5 46 38.933 46 37V11C46 9.067 44.433 7.5 42.5 7.5H5.5C3.567 7.5 2 9.067 2 11V37C2 38.933 3.567 40.5 5.5 40.5Z" fill="#E0E0E0"/>
<path d="M26 40.5H42.5C44.433 40.5 46 38.933 46 37V11C46 9.067 44.433 7.5 42.5 7.5H5.5C3.567 7.5 2 9.067 2 11L26 40.5Z" fill="#D9D9D9"/>
<path d="M6.745 40.5H42.5C44.433 40.5 46 38.933 46 37V11.5L6.745 40.5Z" fill="#EEEEEE"/>
<path d="M25.745 40.5H42.5C44.433 40.5 46 38.933 46 37V11.5L18.771 31.616L25.745 40.5Z" fill="#E0E0E0"/>
<path d="M42.5 9.49995H5.5C3.567 9.49995 2 9.06695 2 10.9999V36.9999C2 38.9329 3.567 40.4999 5.5 40.4999H7V11.9999H41V40.4999H42.5C44.433 40.4999 46 38.9329 46 36.9999V10.9999C46 9.06695 44.433 9.49995 42.5 9.49995Z" fill="#CA3737"/>
<path d="M42.5 7.5H24H5.5C3.567 7.5 2 9.036 2 11C2 12.206 3.518 13.258 3.518 13.258L24 27.756L44.482 13.259C44.482 13.259 46 12.206 46 11.001C46 9.036 44.433 7.5 42.5 7.5Z" fill="#F5F5F5"/>
<path d="M43.246 7.58203L24 21L4.754 7.58203C3.18 7.91903 2 9.29703 2 11C2 12.206 3.518 13.258 3.518 13.258L24 27.756L44.482 13.259C44.482 13.259 46 12.206 46 11.001C46 9.29703 44.82 7.91903 43.246 7.58203Z" fill="#E84F4B"/>
</svg>
