<svg width="236" height="182" viewBox="0 0 236 182" fill="none" xmlns="http://www.w3.org/2000/svg">
<path d="M222.967 81.5093C214.768 102.85 199.353 121.547 177.941 129.764C175.156 130.831 172.312 131.736 169.424 132.475C154.148 136.391 137.435 135.029 123.353 127.895C117.376 124.864 111.927 120.86 105.928 117.873C99.9298 114.886 93.0799 112.932 86.5512 114.406C80.9299 115.675 76.1871 119.313 71.4118 122.554C60.1548 130.194 46.6192 136.24 33.2893 133.616C27.1556 132.41 21.1157 129.07 18.2672 123.486C11.9711 111.142 23.8453 96.4651 21.4405 82.8132C19.9016 74.0758 12.8732 67.5328 8.50382 59.8218C1.02616 46.6324 1.91013 29.1123 10.6777 16.7534C19.4452 4.39448 35.6309 -2.16127 50.4708 0.64237C68.5669 4.06261 82.2486 19.4573 99.845 24.905C110.85 28.3089 122.798 27.2934 133.308 22.8104C150.289 15.5655 173.619 4.45432 192.728 6.26418C202.89 7.22714 212.858 11.7608 219.565 19.5026C228.044 29.2755 230.586 43.1505 229.171 56.0371C228.201 64.7605 226.115 73.3218 222.967 81.5093Z" fill="url(#paint0_linear_17_3)"/>
<path d="M228.423 98.3889C228.046 98.3884 227.67 98.3427 227.304 98.2529C226.146 97.9667 225.141 97.2472 224.494 96.241C223.846 95.2349 223.604 94.0183 223.819 92.8391C224.032 91.6602 224.687 90.6078 225.646 89.8971C226.606 89.1862 227.8 88.8707 228.984 89.0145C230.167 89.1585 231.251 89.7511 232.015 90.6716C232.779 91.592 233.164 92.7706 233.093 93.9669C233.021 95.1633 232.498 96.2871 231.63 97.109C230.763 97.9307 229.615 98.3886 228.423 98.3889ZM228.423 91.1023C227.802 91.1047 227.205 91.335 226.741 91.7498C226.278 92.1645 225.982 92.735 225.908 93.3542C225.836 93.9733 225.989 94.598 226.343 95.1109C226.694 95.6235 227.221 95.9891 227.824 96.1384C228.172 96.2225 228.535 96.2316 228.888 96.1651C229.24 96.0983 229.574 95.9574 229.868 95.7516C230.162 95.5458 230.411 95.2795 230.595 94.9705C230.779 94.6615 230.898 94.3168 230.939 93.9588C230.983 93.601 230.948 93.2379 230.842 92.8939C230.735 92.5499 230.557 92.2325 230.319 91.9627C230.081 91.6928 229.79 91.4767 229.462 91.3283C229.135 91.1801 228.782 91.1031 228.423 91.1023Z" fill="#E7F6FF"/>
<path d="M224.153 103.378C224.418 102.275 223.745 101.165 222.648 100.897C221.549 100.63 220.445 101.307 220.178 102.41C219.913 103.513 220.586 104.624 221.685 104.891C222.782 105.158 223.886 104.481 224.153 103.378Z" fill="#E7F6FF"/>
<path d="M13.162 97.9412C11.9229 97.914 10.7445 97.3966 9.88263 96.5013C9.02074 95.6059 8.54492 94.405 8.55845 93.1592C8.572 91.9133 9.0738 90.7231 9.95496 89.847C10.8361 88.9709 12.0255 88.4795 13.2649 88.4795C14.5042 88.4795 15.6936 88.9709 16.5747 89.847C17.4559 90.7231 17.9577 91.9133 17.9713 93.1592C17.9848 94.405 17.509 95.6059 16.6471 96.5013C15.7852 97.3966 14.6068 97.914 13.3677 97.9412H13.162ZM13.162 90.6564H13.0556C12.3864 90.6709 11.7499 90.9502 11.2843 91.4337C10.8187 91.9171 10.5616 92.5658 10.5689 93.2386C10.5762 93.9114 10.8471 94.5543 11.323 95.0274C11.7989 95.5008 12.4412 95.7661 13.1106 95.7661C13.78 95.7661 14.4224 95.5008 14.8982 95.0274C15.3741 94.5543 15.6451 93.9114 15.6523 93.2386C15.6596 92.5658 15.4025 91.9171 14.9369 91.4337C14.4713 90.9502 13.8349 90.6709 13.1656 90.6564H13.162Z" fill="#E7F6FF"/>
<path d="M9.80609 105.881C10.9339 105.832 11.8087 104.873 11.7601 103.74C11.7114 102.606 10.7577 101.727 9.62991 101.775C8.50213 101.824 7.62731 102.783 7.67594 103.917C7.7246 105.051 8.67829 105.93 9.80609 105.881Z" fill="#E7F6FF"/>
<path d="M131.125 21.4468C130.002 21.4477 128.915 21.0446 128.062 20.3101C127.209 19.5757 126.646 18.5585 126.474 17.4426C126.303 16.3269 126.534 15.1862 127.127 14.2272C127.719 13.2681 128.634 12.554 129.705 12.2141C130.776 11.8742 131.933 11.931 132.966 12.3742C133.999 12.8174 134.84 13.6177 135.337 14.6303C135.834 15.6428 135.953 16.8007 135.674 17.8944C135.396 18.9881 134.736 19.9453 133.816 20.5927C133.027 21.1476 132.088 21.4457 131.125 21.4468ZM131.11 14.1638C130.453 14.1631 129.821 14.4174 129.346 14.8737C128.87 15.3299 128.589 15.9529 128.559 16.6129C128.53 17.2728 128.755 17.9187 129.187 18.4161C129.62 18.9134 130.227 19.2237 130.881 19.2822C131.536 19.3408 132.188 19.1432 132.701 18.7306C133.214 18.318 133.549 17.7222 133.636 17.0674C133.723 16.4126 133.555 15.7494 133.168 15.2159C132.78 14.6824 132.203 14.3198 131.556 14.2037C131.409 14.1773 131.26 14.164 131.11 14.1638Z" fill="#E7F6FF"/>
<path d="M121.528 21.1878C122.452 20.5362 122.676 19.255 122.028 18.3258C121.38 17.3968 120.105 17.1717 119.181 17.8233C118.257 18.4748 118.033 19.7561 118.681 20.6853C119.329 21.6143 120.604 21.8394 121.528 21.1878Z" fill="#E7F6FF"/>
<path d="M235.202 45.8199C235.202 43.8258 234.414 41.9133 233.012 40.5033C231.609 39.0933 229.707 38.3012 227.723 38.3012C227.557 38.3012 227.393 38.3012 227.23 38.3175C227.241 38.1543 227.247 37.9892 227.247 37.8224C227.247 36.7537 227.019 35.6975 226.581 34.7239C226.142 33.7504 225.504 32.8819 224.705 32.1765C223.905 31.4709 222.967 30.9446 221.95 30.6327C220.934 30.3207 219.863 30.2302 218.809 30.3672C217.754 30.5041 216.742 30.8653 215.836 31.427C214.932 31.9884 214.157 32.7374 213.563 33.6238C212.97 34.5101 212.571 35.5135 212.392 36.5671C212.215 37.6207 212.262 38.7003 212.533 39.7338C211.629 39.0748 210.59 38.6276 209.491 38.425C208.393 38.2226 207.263 38.2698 206.186 38.5634C205.108 38.857 204.11 39.3894 203.262 40.1217C202.416 40.8538 201.743 41.7673 201.294 42.795C200.845 43.8225 200.63 44.9383 200.666 46.0601C200.702 47.1821 200.987 48.2818 201.5 49.2785C202.014 50.2752 202.743 51.1437 203.634 51.8203C204.525 52.4967 205.555 52.9641 206.65 53.188C207.097 54.3791 207.837 55.4366 208.802 56.2615C209.766 57.0865 210.922 57.6517 212.163 57.9044C213.404 58.157 214.689 58.0888 215.897 57.706C217.104 57.3231 218.196 56.6386 219.069 55.716C219.962 56.3934 220.994 56.8609 222.091 57.0841C223.187 57.3072 224.319 57.2803 225.403 57.0054C226.489 56.7305 227.497 56.2146 228.358 55.4955C229.218 54.7765 229.906 53.8726 230.373 52.8507C231.793 52.3098 233.014 51.3475 233.876 50.0917C234.74 48.8359 235.202 47.3459 235.202 45.8199Z" fill="white"/>
<path d="M37.7432 27.7466C37.7443 26.7588 37.5515 25.7805 37.1762 24.8675C36.8008 23.9546 36.2502 23.125 35.5558 22.4261C34.8613 21.7271 34.0367 21.1726 33.1289 20.7941C32.2213 20.4158 31.2482 20.2209 30.2656 20.2207C30.0996 20.2207 29.9354 20.2207 29.7731 20.237C29.7839 20.0738 29.7893 19.9088 29.7893 19.7419C29.7891 18.6732 29.5624 17.6169 29.124 16.6434C28.6858 15.6698 28.0461 14.8014 27.2476 14.0959C26.4492 13.3904 25.5102 12.8642 24.4934 12.5522C23.4767 12.2402 22.4056 12.1497 21.3514 12.2866C20.297 12.4236 19.2839 12.7849 18.3794 13.3464C17.475 13.908 16.7001 14.6569 16.1062 15.5432C15.5124 16.4296 15.1133 17.433 14.9356 18.4866C14.758 19.5401 14.8057 20.6196 15.0758 21.6533C14.1718 20.9943 13.1325 20.5471 12.0342 20.3445C10.9359 20.142 9.80637 20.1893 8.72859 20.4829C7.6508 20.7765 6.65209 21.3089 5.80572 22.0411C4.95937 22.7733 4.28685 23.6868 3.83752 24.7145C3.38819 25.742 3.17345 26.8578 3.20907 27.9797C3.24468 29.1017 3.52975 30.2014 4.04334 31.1981C4.55694 32.1947 5.28602 33.0632 6.1771 33.7398C7.06819 34.4163 8.09865 34.8836 9.19286 35.1076C9.64002 36.2976 10.3802 37.3541 11.3442 38.1782C12.3082 39.0022 13.4644 39.5671 14.7047 39.8195C15.9449 40.0722 17.2287 40.0043 18.4357 39.6222C19.6428 39.2403 20.7337 38.5568 21.6063 37.6356C22.4991 38.3129 23.5317 38.7804 24.628 39.0037C25.7243 39.2267 26.8565 39.1999 27.9411 38.9249C29.0257 38.65 30.0352 38.1341 30.8952 37.415C31.7551 36.696 32.4437 35.7922 32.9103 34.7703C34.3293 34.2302 35.5515 33.2692 36.4147 32.0148C37.278 30.7605 37.7412 29.2718 37.7432 27.7466Z" fill="white"/>
<path d="M175.341 134.73H67.7315V132.372H175.341C175.652 132.372 175.951 132.496 176.17 132.717C176.39 132.938 176.514 133.238 176.514 133.551C176.514 133.863 176.39 134.163 176.17 134.384C175.951 134.605 175.652 134.73 175.341 134.73Z" fill="#426572"/>
<path d="M62.9185 134.73H56.3393C56.0283 134.73 55.7301 134.605 55.5102 134.384C55.2903 134.163 55.1667 133.863 55.1667 133.551C55.1667 133.238 55.2903 132.938 55.5102 132.717C55.7301 132.496 56.0283 132.372 56.3393 132.372H62.9185C63.2296 132.372 63.5278 132.496 63.7477 132.717C63.9676 132.938 64.0912 133.238 64.0912 133.551C64.0912 133.863 63.9676 134.163 63.7477 134.384C63.5278 134.605 63.2296 134.73 62.9185 134.73Z" fill="#426572"/>
<path d="M52.0694 134.73H49.9731C49.6621 134.73 49.3639 134.605 49.144 134.384C48.924 134.163 48.8005 133.863 48.8005 133.551C48.8005 133.238 48.924 132.938 49.144 132.717C49.3639 132.496 49.6621 132.372 49.9731 132.372H52.0694C52.3804 132.372 52.6786 132.496 52.8985 132.717C53.1184 132.938 53.242 133.238 53.242 133.551C53.242 133.863 53.1184 134.163 52.8985 134.384C52.6786 134.605 52.3804 134.73 52.0694 134.73Z" fill="#426572"/>
<path d="M213.074 134.73H179.999V132.372H213.074C213.384 132.372 213.684 132.496 213.904 132.717C214.124 132.938 214.247 133.238 214.247 133.551C214.247 133.863 214.124 134.163 213.904 134.384C213.684 134.605 213.384 134.73 213.074 134.73Z" fill="#426572"/>
<path d="M43.9758 134.73H10.8992V132.372H43.9758C44.2868 132.372 44.5852 132.496 44.8051 132.717C45.025 132.938 45.1484 133.238 45.1484 133.551C45.1484 133.863 45.025 134.163 44.8051 134.384C44.5852 134.605 44.2868 134.73 43.9758 134.73Z" fill="#426572"/>
<path d="M49.0761 42.697H180.901C181.218 42.697 181.531 42.7598 181.824 42.8815C182.116 43.0031 182.382 43.1816 182.606 43.4066C182.829 43.6317 183.007 43.8986 183.128 44.1926C183.249 44.4866 183.311 44.8016 183.311 45.1198V129.177H46.666V45.1198C46.666 44.8016 46.7284 44.4866 46.8494 44.1926C46.9707 43.8986 47.1482 43.6317 47.3719 43.4066C47.5957 43.1816 47.8615 43.0031 48.1539 42.8815C48.4462 42.7598 48.7597 42.697 49.0761 42.697Z" fill="#EBF0F9"/>
<path d="M178.558 48.6978H51.9575V121.4H178.558V48.6978Z" fill="#637F91"/>
<path d="M51.0118 121.264H179.097C179.097 121.841 178.869 122.395 178.463 122.803C178.057 123.211 177.507 123.441 176.932 123.441H53.1767C52.6024 123.441 52.0519 123.211 51.646 122.803C51.2399 122.395 51.0118 121.841 51.0118 121.264Z" fill="white"/>
<g opacity="0.5">
<path opacity="0.5" d="M89.7875 48.426L70.8597 121.81H61.3273L80.255 48.426H89.7875Z" fill="#A7BCD5"/>
<path opacity="0.5" d="M114.085 48.426L95.1558 121.81H75.1673L94.0951 48.426H114.085Z" fill="#A7BCD5"/>
</g>
<path d="M184.388 130.265H45.5835V50.9411C45.5864 48.4669 46.5654 46.0949 48.3058 44.3454C50.0461 42.596 52.4058 41.6118 54.867 41.6089H106.841V43.7851H54.867C52.9798 43.7874 51.1705 44.5422 49.8359 45.8836C48.5015 47.2251 47.7507 49.044 47.7483 50.9411V128.088H182.224V45.7672C182.223 45.2417 182.015 44.7377 181.646 44.3661C181.276 43.9945 180.775 43.7856 180.252 43.7851H130.832V41.6089H180.252C181.348 41.6122 182.398 42.0514 183.173 42.8304C183.948 43.6097 184.385 44.6653 184.388 45.7672V130.265Z" fill="#426572"/>
<path d="M29.4319 126.582H204.202V127.148C204.202 129.023 203.46 130.822 202.142 132.149C200.821 133.475 199.032 134.22 197.166 134.22H36.4676C34.6015 134.22 32.8121 133.475 31.4926 132.149C30.1732 130.822 29.4319 129.023 29.4319 127.148V126.582Z" fill="#EBF0F9"/>
<path opacity="0.5" d="M203.309 130.268C202.925 131.272 202.246 132.135 201.364 132.744C200.482 133.352 199.438 133.678 198.368 133.678H34.1822C33.1124 133.678 32.0675 133.352 31.1853 132.744C30.3034 132.135 29.6254 131.272 29.241 130.268H203.309Z" fill="#A7BCD5"/>
<path d="M196.353 135.04H35.6544C33.502 135.037 31.4386 134.177 29.9167 132.647C28.3948 131.117 27.5387 129.042 27.5363 126.879V125.225H204.471V126.879C204.469 129.042 203.612 131.117 202.091 132.647C200.569 134.177 198.505 135.037 196.353 135.04ZM29.7246 127.399C29.8547 128.891 30.5359 130.279 31.6338 131.29C32.7319 132.301 34.1672 132.862 35.6562 132.862H196.355C197.845 132.862 199.279 132.301 200.377 131.29C201.474 130.279 202.156 128.891 202.286 127.399H29.7246Z" fill="#426572"/>
<path d="M179.368 122.081H50.6045V47.6099H179.368V122.081ZM52.7675 119.904H177.203V49.786H52.7693L52.7675 119.904Z" fill="#426572"/>
<path d="M200.946 66.1582V86.2099C200.944 86.6419 200.771 87.0554 200.468 87.3608C200.163 87.6663 199.751 87.8392 199.322 87.8421H163.902C163.675 87.8424 163.45 87.7944 163.242 87.7006C162.954 87.5728 162.709 87.3635 162.537 87.0982C162.365 86.8329 162.273 86.5229 162.273 86.2063V66.1582C162.273 65.8274 162.372 65.5043 162.558 65.2315C162.745 64.959 163.009 64.7495 163.316 64.6313C163.501 64.5589 163.698 64.5219 163.897 64.5225H199.311C199.705 64.5236 200.083 64.6666 200.379 64.9252C200.675 65.184 200.868 65.5411 200.924 65.9315C200.937 66.0064 200.944 66.0822 200.946 66.1582Z" fill="white"/>
<path d="M200.675 65.6121V85.6638C200.673 86.0957 200.5 86.5092 200.197 86.8146C199.892 87.1202 199.481 87.293 199.051 87.2959H163.632C163.404 87.2965 163.179 87.2482 162.971 87.1545C162.683 87.0266 162.438 86.8173 162.266 86.552C162.094 86.2867 162.003 85.9768 162.003 85.6602V85.3881H196.876C197.305 85.3852 197.716 85.2124 198.021 84.9068C198.324 84.6014 198.498 84.188 198.499 83.756V63.9763H199.041C199.434 63.9774 199.813 64.1205 200.109 64.3793C200.404 64.6379 200.598 64.995 200.653 65.3854C200.666 65.4603 200.673 65.5361 200.675 65.6121Z" fill="#D6DEE9"/>
<path d="M199.046 88.6618H163.632C163.251 88.6625 162.875 88.5814 162.528 88.4242C162.049 88.2104 161.642 87.8615 161.357 87.4197C161.072 86.9781 160.92 86.4627 160.92 85.9361V65.8862C160.923 65.3472 161.084 64.8212 161.382 64.3734C161.68 63.9258 162.103 63.5764 162.598 63.3691L162.778 63.2712H162.865C163.112 63.1983 163.367 63.1616 163.625 63.1624H199.039C199.692 63.1647 200.322 63.4028 200.816 63.8332C201.308 64.2635 201.629 64.8576 201.723 65.5072C201.741 65.6327 201.75 65.7593 201.75 65.8862V85.9379C201.752 86.5044 201.575 87.0568 201.247 87.5174C200.996 87.8698 200.666 88.1574 200.284 88.3564C199.901 88.5555 199.477 88.6599 199.046 88.6618ZM163.307 65.4492C163.238 65.4996 163.183 65.5656 163.144 65.6419C163.105 65.7181 163.085 65.8024 163.085 65.888V85.9379C163.085 86.0442 163.116 86.1483 163.174 86.2373C163.232 86.3262 163.315 86.3962 163.412 86.4384C163.481 86.4698 163.556 86.4858 163.632 86.4856H199.046C199.134 86.4854 199.219 86.464 199.297 86.4232C199.374 86.3826 199.441 86.3236 199.49 86.2516C199.557 86.1595 199.591 86.0493 199.591 85.9361V65.8862C199.593 65.8632 199.593 65.8402 199.591 65.8173C199.575 65.6849 199.51 65.5636 199.41 65.4753C199.311 65.387 199.183 65.3376 199.05 65.3367H163.632C163.581 65.3365 163.531 65.3438 163.482 65.3585L163.307 65.4492Z" fill="#426572"/>
<path d="M172.242 75.0441C171.705 74.7212 171.12 74.4879 170.51 74.3532C170.822 74.1581 171.078 73.886 171.255 73.5627C171.432 73.2395 171.523 72.8759 171.52 72.5071C171.516 72.1324 171.416 71.7652 171.229 71.4413C171.041 71.1174 170.773 70.8481 170.451 70.6597C170.129 70.4714 169.763 70.3704 169.391 70.3668C169.018 70.3632 168.651 70.4571 168.325 70.6392C167.999 70.8211 167.726 71.0853 167.532 71.4054C167.339 71.7255 167.231 72.0907 167.22 72.4652C167.21 72.8398 167.296 73.2107 167.47 73.5417C167.645 73.8726 167.902 74.1523 168.217 74.3532C167.581 74.4812 166.971 74.7166 166.413 75.0496C166.276 75.1393 166.162 75.2599 166.079 75.4019C165.997 75.5439 165.949 75.7033 165.939 75.8675V78.4589C165.939 78.6031 165.996 78.7415 166.097 78.8436C166.199 78.9457 166.336 79.003 166.48 79.003H172.179C172.322 79.003 172.46 78.9457 172.561 78.8436C172.663 78.7415 172.72 78.6031 172.72 78.4589V75.8638C172.712 75.6984 172.665 75.5374 172.582 75.3945C172.498 75.2516 172.382 75.1314 172.242 75.0441Z" fill="#426572"/>
<path d="M194.976 67.9133H175.98V70.0895H194.976V67.9133Z" fill="#426572"/>
<path d="M188.191 71.7327H175.98V73.9088H188.191V71.7327Z" fill="#426572"/>
<path d="M194.706 79.2351H175.98V81.4113H194.706V79.2351Z" fill="#426572"/>
<path d="M116.97 134.088C116.97 134.088 145.845 119.58 145.845 97.8053V68.7769L116.97 61.5229L88.0951 68.7769V97.8035C88.0951 119.574 116.97 134.088 116.97 134.088Z" fill="#E8837E"/>
<path d="M122.695 131.414C120.839 132.645 118.923 133.779 116.953 134.813C116.953 134.813 88.0774 120.305 88.0774 98.5287V69.5021L94.3915 67.9153V92.5224C94.3915 111.491 113.467 125.675 122.695 131.414Z" fill="#D66765"/>
<path d="M116.393 135.302L115.909 135.059C115.61 134.909 108.482 131.296 101.243 124.927C96.969 121.168 93.5594 117.233 91.1078 113.227C88.0067 108.162 86.4354 102.973 86.4354 97.8122V67.9278L116.393 60.3982L116.656 60.4635L146.35 67.926V97.8031C146.35 102.973 144.779 108.162 141.678 113.218C139.226 117.224 135.817 121.159 131.543 124.918C124.304 131.287 117.176 134.892 116.876 135.05L116.393 135.302ZM88.6002 69.627V97.8031C88.6002 102.564 90.0632 107.369 92.9515 112.086C95.2967 115.905 98.5584 119.676 102.668 123.29C106.887 126.967 111.489 130.176 116.393 132.86C121.311 130.167 125.925 126.949 130.154 123.259C134.254 119.647 137.516 115.882 139.847 112.073C142.733 107.358 144.177 102.565 144.177 97.8122V69.627L116.393 62.6415L88.6002 69.627Z" fill="#426572"/>
<path d="M98.8532 100.879L111.33 110.913L113.101 112.338C114.079 113.125 115.006 113.559 116.284 113.387C116.852 113.317 117.398 113.118 117.877 112.804C118.357 112.489 118.759 112.068 119.051 111.573L132.707 89.1275L134.656 85.9267C135.691 84.2257 135.082 81.6632 133.297 80.7166C131.452 79.7355 129.218 80.2669 128.114 82.0822L114.458 104.526L112.51 107.727L118.463 106.956L105.99 96.9255L104.218 95.5001C102.674 94.2579 100.349 93.868 98.8604 95.5001C97.5976 96.882 97.2079 99.5569 98.8604 100.886L98.8532 100.879Z" fill="white"/>
<path opacity="0.2" d="M67.4287 62.5656C68.6895 60.1865 69.4636 57.5776 69.7052 54.8929C69.9469 52.2081 69.651 49.502 68.8354 46.9339C68.0197 44.366 66.7006 41.9884 64.9559 39.9411C63.2112 37.8941 61.0764 36.2189 58.6772 35.0146C56.278 33.8103 53.6633 33.1012 50.9872 32.9293C48.3109 32.7574 45.6276 33.126 43.0955 34.0134C40.5634 34.9009 38.2339 36.2893 36.244 38.0964C34.2544 39.9038 32.6448 42.0932 31.5106 44.5359C29.9442 47.4928 29.1344 50.795 29.154 54.1449C29.1737 57.4949 30.0223 60.7873 31.6234 63.7253C33.2244 66.6633 35.5276 69.1547 38.3253 70.9749C41.123 72.7951 44.3273 73.887 47.6494 74.1519C47.0696 74.2898 46.4809 74.4015 45.8833 74.4874C49.028 74.9432 52.2356 74.6423 55.2422 73.6095C58.2487 72.5768 60.9687 70.8416 63.1784 68.5465C64.9465 66.8304 66.387 64.8033 67.4287 62.5656Z" fill="#606060"/>
<path d="M46.9999 69.4387C58.089 69.4387 67.0786 60.4019 67.0786 49.2546C67.0786 38.1073 58.089 29.0706 46.9999 29.0706C35.9108 29.0706 26.9211 38.1073 26.9211 49.2546C26.9211 60.4019 35.9108 69.4387 46.9999 69.4387Z" fill="#A8EF9E"/>
<path d="M66.1203 50.6961C66.1197 53.5899 65.5 56.45 64.3036 59.0821C63.1072 61.7141 61.3616 64.0568 59.1854 65.9513C57.0092 67.8457 54.4533 69.2477 51.691 70.0622C48.9285 70.8766 46.0242 71.0844 43.1749 70.6717C47.9527 69.9773 52.3217 67.5759 55.4818 63.907C58.6417 60.2383 60.3809 55.5479 60.3809 50.6952C60.3809 45.8424 58.6417 41.152 55.4818 37.4833C52.3217 33.8144 47.9527 31.413 43.1749 30.7188C46.0246 30.3055 48.9292 30.5132 51.6919 31.3276C54.4547 32.142 57.011 33.5442 59.1874 35.4389C61.3638 37.3337 63.1093 39.6767 64.3058 42.3091C65.5024 44.9416 66.1217 47.8018 66.1221 50.6961H66.1203Z" fill="#A7E59C"/>
<path d="M46.5219 71.486C42.3364 71.4864 38.2448 70.239 34.7647 67.9016C31.2844 65.5644 28.5719 62.2421 26.9701 58.3551C25.3681 54.4681 24.949 50.1908 25.7654 46.0642C26.5819 41.9376 28.5973 38.1473 31.5568 35.1721C34.5165 32.1971 38.2871 30.171 42.3921 29.3503C46.4971 28.5296 50.7521 28.9509 54.6188 30.5613C58.4856 32.1715 61.7905 34.8982 64.1156 38.3968C66.4408 41.8952 67.6816 46.0082 67.6812 50.2156C67.6745 55.8549 65.4431 61.261 61.4763 65.2487C57.5096 69.2362 52.1316 71.4793 46.5219 71.486ZM46.5219 31.1197C42.7646 31.1193 39.0916 32.2389 35.9676 34.337C32.8434 36.4352 30.4084 39.4174 28.9702 42.9066C27.5322 46.3959 27.1557 50.2356 27.8885 53.94C28.6213 57.6444 30.4304 61.047 33.087 63.7179C35.7436 66.3887 39.1284 68.2076 42.8133 68.9446C46.4984 69.6816 50.3179 69.3035 53.7892 67.8581C57.2605 66.413 60.2274 63.9653 62.3148 60.8249C64.4022 57.6847 65.5164 53.9926 65.5164 50.2156C65.5112 45.1529 63.5083 40.2992 59.9474 36.7192C56.3862 33.1392 51.558 31.1255 46.5219 31.1197Z" fill="#426572"/>
<path d="M128.098 41.7053H124.039V43.8815H128.098V41.7053Z" fill="#426572"/>
<path d="M121.421 41.7053H110.478V43.8815H121.421V41.7053Z" fill="#426572"/>
<path d="M54.4144 61.2488C48.5224 62.0885 41.2595 59.9159 41.2595 59.9159L37.6785 60.6322C37.5213 60.6625 37.3597 60.6569 37.2051 60.6157C37.0507 60.5746 36.9073 60.4989 36.7858 60.3943C36.6646 60.2897 36.5683 60.1589 36.5041 60.0117C36.44 59.8646 36.4097 59.7046 36.4157 59.5441C36.488 56.9697 36.4223 54.3931 36.219 51.826C36.2008 51.6404 36.2317 51.4533 36.308 51.2835C36.3845 51.1136 36.5039 50.9669 36.6543 50.8581C36.8048 50.7493 36.981 50.682 37.1656 50.6632C37.35 50.6443 37.5361 50.6744 37.7055 50.7506C38.5123 51.1508 39.3964 51.3686 40.2961 51.3889C42.47 51.3708 44.3678 49.6951 45.3383 47.7057C46.3089 45.7163 46.529 44.4269 46.7329 42.2145C46.8213 41.2479 46.962 40.1761 47.6926 39.5559C48.9554 38.4805 51.0336 39.7373 51.4431 41.3603C51.8527 42.9834 51.1924 43.7052 50.635 45.2829C50.2741 46.313 50.3535 46.371 50.0613 47.4319C50.0239 47.518 50.0057 47.6111 50.0075 47.705C50.0095 47.7989 50.0313 47.8912 50.0721 47.9759C50.1244 48.0349 50.1881 48.0824 50.2595 48.1154C50.331 48.1486 50.4084 48.1663 50.487 48.1682C51.6668 48.3205 52.4408 48.763 53.6224 48.8936C54.1654 48.9527 54.6814 49.1627 55.1125 49.4998C55.5435 49.8371 55.8727 50.2883 56.0632 50.8032V59.7055C56.0651 59.9179 56.023 60.1283 55.9397 60.3236C55.8565 60.5187 55.7338 60.6944 55.5794 60.8395C55.4252 60.9846 55.2426 61.0959 55.0432 61.1663C54.8439 61.2367 54.6321 61.2648 54.4216 61.2488H54.4144Z" fill="#85D175"/>
<path fill-rule="evenodd" clip-rule="evenodd" d="M48.0976 28.635C46.4091 26.6427 45.2663 24.2011 45.4573 21.4652C46.0075 13.5824 56.9233 15.3166 59.0467 19.2951C61.17 23.2737 60.9177 33.3656 58.1735 34.0767C57.0791 34.3602 54.7477 33.6656 52.3749 32.2279L53.8642 42.8199H45.0701L48.0976 28.635Z" fill="#B28B67"/>
<path fill-rule="evenodd" clip-rule="evenodd" d="M54.0343 14.7095C52.8753 14.5185 49.7545 14.3871 49.179 14.3872C48.8112 14.3872 48.4126 14.4717 48.1948 14.1322C48.0164 13.8542 48.0817 13.384 48.0285 13.0614C47.9667 12.6867 47.8789 12.3167 47.79 11.9477C47.5373 10.8978 47.1551 9.89882 46.6204 8.96095C45.617 7.20139 44.1471 5.82312 42.2915 5.02111C40.2422 4.13557 37.9234 3.9328 35.7192 4.11242C33.3604 4.30459 31.2251 5.08735 28.998 5.82397C26.8757 6.52591 24.6529 6.80221 22.4332 6.45942C20.1967 6.11409 18.5069 4.8956 16.6205 3.7391C14.6894 2.55512 12.4825 1.78076 10.1995 1.95876C8.0685 2.12498 6.10441 3.00951 4.34225 4.19112C2.69354 5.29665 1.33315 6.62675 0.565104 8.49876C-0.261141 10.5125 -0.260381 12.7229 1.09833 14.5025C3.06772 17.0822 6.72384 17.7492 9.76557 17.6829C11.525 17.6447 13.2529 17.3218 14.914 16.7345C17.1292 15.9513 19.0435 14.6237 21.1159 13.5466C22.0885 13.0411 23.0938 12.626 24.1476 12.327C25.1701 12.0367 26.1772 11.9036 27.1031 12.5245C28.0825 13.1814 28.9601 13.8267 30.0805 14.2379C31.1554 14.6324 32.2939 14.8531 33.4391 14.8442C35.6672 14.8269 37.8636 14.129 40.0276 13.6616C41.7923 13.2805 43.6804 12.9006 45.4795 13.267C46.2302 13.4199 47.3268 13.7355 47.5979 14.5198C43.0343 15.3513 41.242 21.0248 42.5285 25.1897C43.2229 27.4377 47.3969 30.0655 49.0197 28.8837C50.0479 28.135 49.4237 27.1521 49.0197 26.5033C48.2461 25.2607 47.9815 23.6645 49.4129 22.7994C50.6477 22.0533 51.9459 23.8252 51.9705 23.8232C52.3098 23.7963 55.2422 22.1292 57.2626 19.6965C59.2557 19.8153 59.5581 18.4942 59.0821 17.4138C58.6062 16.3334 55.6357 14.9737 54.0343 14.7095Z" fill="#191847"/>
<path fill-rule="evenodd" clip-rule="evenodd" d="M37.9776 73.3928C38.6383 82.4577 81.2019 109.146 81.4503 109.895C81.5606 110.227 77.1445 120.748 68.2018 141.455L71.9225 142.909C85.639 120.978 92.145 108.844 91.4405 106.507C90.4318 103.161 79.4237 92.1555 58.416 73.4892L37.9776 73.3928Z" fill="#B28B67"/>
<path fill-rule="evenodd" clip-rule="evenodd" d="M69.1809 136.778L75.2555 139.001C88.0648 124.473 93.0857 112.485 92.1702 106.378C91.5599 102.306 80.5896 91.3183 59.2595 73.4149L37.5419 73.4149C38.283 94.4077 77.7341 109.974 78.2618 110.869C78.7895 111.764 73.5965 120.525 69.1809 136.778Z" fill="#561D5E"/>
<path fill-rule="evenodd" clip-rule="evenodd" d="M65.9844 139.701C65.3817 139.951 65.0324 140.191 64.9364 140.423C64.8197 140.704 64.7593 141.173 64.7553 141.83C65.5208 142.235 72.4003 145.877 85.3939 152.755C86.2438 152.282 86.1035 151.71 84.973 151.038C83.8425 150.366 82.9052 149.803 82.161 149.35L73.3248 142.448C73.1548 142.315 72.9238 142.236 72.8088 142.271C72.8069 142.272 72.8049 142.272 72.8031 142.273L71.9219 142.585C70.7639 142.231 69.8505 141.878 69.1817 141.524C68.6384 141.236 67.9268 140.745 67.047 140.051L67.047 140.051C66.7093 139.785 66.2464 139.624 66.013 139.691C66.0029 139.694 65.9934 139.698 65.9844 139.701Z" fill="#E4E4E4"/>
<path fill-rule="evenodd" clip-rule="evenodd" d="M42.8715 73.3931L23.9106 119.152L5.2749 157.837H9.67166L57.7753 73.3931H42.8715Z" fill="#997659"/>
<path fill-rule="evenodd" clip-rule="evenodd" d="M5.01194 156.051C4.602 157.151 4.39703 157.974 4.39703 158.52C4.39703 159.184 4.50711 160.153 4.72727 161.428C5.49381 161.428 12.3828 161.428 25.3942 161.428C25.9313 159.643 25.6213 158.679 24.4642 158.537C23.3071 158.395 22.3458 158.266 21.5805 158.151L11.9747 153.847C11.7898 153.764 11.5732 153.847 11.4908 154.033C11.4894 154.036 11.488 154.04 11.4867 154.043L10.8693 155.548C9.79808 156.051 8.92763 156.302 8.25792 156.302C7.7138 156.302 6.96236 156.081 6.00361 155.639L6.00361 155.639C5.63569 155.47 5.20069 155.632 5.03203 156.002C5.02476 156.018 5.01806 156.034 5.01194 156.051Z" fill="#E4E4E4"/>
<path fill-rule="evenodd" clip-rule="evenodd" d="M6.95776 149.8L16.7274 151.642C24.2813 140.478 55.8945 94.7026 59.3606 73.3931H37.6111C26.0361 88.7977 14.1582 138.452 6.95776 149.8Z" fill="#561D5E"/>
<path fill-rule="evenodd" clip-rule="evenodd" d="M75.8497 63.3058L89.1269 57.4443C91.4528 55.1145 93.6987 53.3437 95.8648 52.1319C96.5125 51.9246 97.619 51.862 96.4384 53.5955C95.2578 55.3289 94.0936 57.2056 94.5653 57.8131C95.037 58.4206 96.4035 57.75 96.9434 58.738C97.3033 59.3966 94.9999 60.1844 90.0331 61.1015L80.0892 68.7655L75.8497 63.3058ZM22.1717 64.9202L29.6803 66.4178C22.1291 80.5642 18.0795 88.0618 17.5315 88.9106C16.2987 90.8204 17.449 94.3206 17.8739 96.1637C15.2082 96.7875 16.2594 92.7543 12.8861 93.5964C9.80699 94.365 7.19631 96.3376 4.3252 93.6772C3.97221 93.3502 3.71381 92.3278 4.91732 91.8035C7.9157 90.4971 12.3455 88.051 13.0638 87.1013C14.0434 85.8062 17.0793 78.4125 22.1717 64.9202Z" fill="#B28B67"/>
<path fill-rule="evenodd" clip-rule="evenodd" d="M50.0884 36.68L53.2569 36.1337C60.1582 42.8634 62.9745 59.0314 67.5737 61.1716C71.9221 63.1949 78.0863 61.2369 85.4134 58.5931L87.6572 63.6329C80.9999 70.8731 66.8171 76.9899 61.0683 73.4979C51.877 67.915 49.7552 47.9741 50.0884 36.68Z" fill="#F5D400"/>
<path fill-rule="evenodd" clip-rule="evenodd" d="M36.276 76.7073C48.9806 76.7073 58.3258 76.7073 64.3116 76.7073C65.5927 76.7073 65.3513 74.8477 65.1661 73.9094C63.0288 63.0799 54.6856 51.4061 54.6856 35.9906L46.5988 34.7158C39.91 45.5299 37.5969 58.8442 36.276 76.7073Z" fill="#DDE3E9"/>
<path fill-rule="evenodd" clip-rule="evenodd" d="M33.4796 65.7428C27.7644 76.1061 22.9604 83.5672 19.0677 88.126L13.1912 86.969C16.9766 63.3697 27.9385 45.952 46.077 34.7158H47.5367L49.279 34.7158C56.5387 59.5928 58.5401 76.1684 55.2831 84.4426H30.0467C30.446 78.3882 31.7262 71.9855 33.4796 65.7428H33.4796Z" fill="#F5D400"/>
<defs>
<linearGradient id="paint0_linear_17_3" x1="3.44355" y1="67.3151" x2="229.538" y2="67.3151" gradientUnits="userSpaceOnUse">
<stop stop-color="#E534FE"/>
<stop offset="1" stop-color="#F5D400"/>
</linearGradient>
</defs>
</svg>
