<svg width="702" height="482" viewBox="0 0 702 482" fill="none" xmlns="http://www.w3.org/2000/svg">
<path d="M665.276 243.202C640.811 306.878 594.816 362.665 530.929 387.182C522.62 390.366 514.135 393.067 505.517 395.272C459.936 406.954 410.071 402.89 368.053 381.604C350.22 372.562 333.959 360.614 316.062 351.703C298.164 342.791 277.726 336.958 258.246 341.357C241.473 345.145 227.322 355.999 213.074 365.668C179.486 388.465 139.099 406.505 99.3265 398.675C81.0252 395.077 63.0037 385.11 54.5044 368.45C35.7187 331.617 71.148 287.826 63.9728 247.093C59.3812 221.023 38.4101 201.5 25.3732 178.493C3.06179 139.139 5.69932 86.8634 31.8593 49.9876C58.0193 13.1119 106.313 -6.44867 150.591 1.91665C204.586 12.1217 245.408 58.0555 297.911 74.31C330.746 84.4663 366.395 81.4362 397.755 68.0603C448.423 46.4434 518.032 13.2905 575.051 18.6906C605.372 21.5639 635.111 35.0912 655.124 58.1907C680.423 87.3504 688.007 128.75 683.787 167.2C680.891 193.228 674.669 218.773 665.276 243.202Z" fill="url(#paint0_linear_124_217)"/>
<path d="M681.553 293.567C680.428 293.565 679.308 293.429 678.216 293.161C674.76 292.307 671.762 290.16 669.83 287.158C667.897 284.156 667.176 280.526 667.816 277.008C668.452 273.49 670.406 270.35 673.269 268.229C676.133 266.108 679.696 265.167 683.227 265.596C686.758 266.025 689.993 267.794 692.27 270.54C694.552 273.286 695.699 276.803 695.489 280.373C695.274 283.942 693.713 287.295 691.124 289.748C688.534 292.199 685.111 293.566 681.553 293.567ZM681.553 271.825C679.701 271.833 677.92 272.52 676.536 273.757C675.153 274.995 674.27 276.697 674.05 278.544C673.834 280.392 674.292 282.256 675.347 283.786C676.396 285.316 677.968 286.406 679.766 286.852C680.805 287.103 681.887 287.13 682.942 286.931C683.991 286.732 684.987 286.312 685.865 285.698C686.742 285.083 687.485 284.289 688.034 283.367C688.583 282.445 688.938 281.416 689.062 280.348C689.191 279.281 689.089 278.197 688.771 277.171C688.454 276.145 687.921 275.198 687.21 274.392C686.5 273.587 685.633 272.942 684.654 272.5C683.679 272.058 682.624 271.828 681.553 271.825Z" fill="#E7F6FF"/>
<path d="M668.812 308.453C669.604 305.163 667.596 301.848 664.323 301.05C661.045 300.253 657.751 302.273 656.954 305.564C656.163 308.854 658.171 312.169 661.449 312.966C664.721 313.764 668.016 311.743 668.812 308.453Z" fill="#E7F6FF"/>
<path d="M39.272 292.23C35.5749 292.149 32.0589 290.605 29.4872 287.934C26.9155 285.263 25.4958 281.679 25.5361 277.962C25.5766 274.245 27.0738 270.694 29.703 268.08C32.3321 265.466 35.8808 263.999 39.5788 263.999C43.2768 263.999 46.8256 265.466 49.4547 268.08C52.0838 270.694 53.5811 274.245 53.6215 277.962C53.6619 281.679 52.2421 285.263 49.6705 287.934C47.0988 290.605 43.5828 292.149 39.8856 292.23H39.272ZM39.272 270.494H38.9544C36.9577 270.538 35.0585 271.371 33.6694 272.814C32.2802 274.256 31.5132 276.192 31.5348 278.199C31.5564 280.207 32.3649 282.125 33.7848 283.536C35.2047 284.949 37.1214 285.74 39.1186 285.74C41.1159 285.74 43.0325 284.949 44.4523 283.536C45.8722 282.125 46.6808 280.207 46.7024 278.199C46.724 276.192 45.957 274.256 44.5679 272.814C43.1787 271.371 41.2796 270.538 39.2828 270.494H39.272Z" fill="#E7F6FF"/>
<path d="M29.2587 315.921C32.6237 315.775 35.234 312.915 35.0888 309.532C34.9436 306.149 32.0981 303.525 28.733 303.671C25.368 303.817 22.7578 306.678 22.9029 310.06C23.0481 313.443 25.8936 316.067 29.2587 315.921Z" fill="#E7F6FF"/>
<path d="M391.241 63.9916C387.89 63.9944 384.649 62.7915 382.103 60.6001C379.558 58.4086 377.878 55.3736 377.366 52.0442C376.854 48.715 377.545 45.3117 379.313 42.4501C381.081 39.5885 383.81 37.4578 387.006 36.4436C390.201 35.4295 393.653 35.599 396.735 36.9214C399.817 38.2437 402.327 40.6316 403.809 43.6528C405.291 46.674 405.649 50.1289 404.817 53.3921C403.984 56.6555 402.018 59.5114 399.272 61.4431C396.918 63.0988 394.115 63.9884 391.241 63.9916ZM391.198 42.261C389.237 42.259 387.351 43.0177 385.934 44.3791C384.515 45.7404 383.675 47.5994 383.587 49.5685C383.498 51.5375 384.17 53.4648 385.46 54.9488C386.751 56.4325 388.562 57.3584 390.515 57.5331C392.468 57.7079 394.413 57.1181 395.944 55.8871C397.475 54.6561 398.475 52.8785 398.734 50.9247C398.994 48.971 398.494 46.992 397.337 45.4001C396.181 43.8083 394.458 42.7264 392.527 42.3801C392.089 42.3014 391.644 42.2616 391.198 42.261Z" fill="#E7F6FF"/>
<path d="M362.608 63.2189C365.366 61.2747 366.033 57.4519 364.1 54.6793C362.166 51.9074 358.362 51.236 355.605 53.18C352.847 55.1241 352.179 58.947 354.113 61.7195C356.047 64.4916 359.85 65.163 362.608 63.2189Z" fill="#E7F6FF"/>
<path d="M701.781 136.714C701.781 130.764 699.429 125.058 695.247 120.851C691.059 116.644 685.386 114.28 679.465 114.28C678.969 114.28 678.48 114.28 677.995 114.329C678.027 113.842 678.044 113.35 678.044 112.852C678.044 109.663 677.365 106.512 676.057 103.607C674.749 100.702 672.844 98.1108 670.459 96.006C668.075 93.9006 665.276 92.3303 662.24 91.3996C659.209 90.4689 656.012 90.1989 652.869 90.6074C649.72 91.016 646.7 92.0938 643.998 93.7696C641.301 95.4448 638.987 97.6796 637.216 100.324C635.445 102.969 634.255 105.963 633.722 109.106C633.195 112.25 633.335 115.471 634.142 118.555C631.445 116.589 628.345 115.254 625.067 114.65C621.789 114.046 618.419 114.187 615.206 115.063C611.987 115.939 609.01 117.527 606.48 119.712C603.956 121.897 601.948 124.622 600.608 127.689C599.268 130.755 598.627 134.084 598.735 137.431C598.842 140.779 599.693 144.06 601.221 147.034C602.756 150.008 604.93 152.599 607.589 154.618C610.248 156.636 613.322 158.031 616.589 158.699C617.924 162.253 620.131 165.408 623.011 167.869C625.885 170.331 629.335 172.017 633.039 172.771C636.742 173.525 640.574 173.321 644.181 172.179C647.782 171.037 651.038 168.994 653.644 166.242C656.308 168.263 659.387 169.658 662.66 170.324C665.932 170.989 669.307 170.909 672.542 170.089C675.783 169.269 678.792 167.729 681.359 165.584C683.927 163.438 685.978 160.742 687.372 157.692C691.608 156.078 695.252 153.207 697.825 149.46C700.403 145.713 701.781 141.268 701.781 136.714Z" fill="white"/>
<path d="M112.616 82.7886C112.619 79.8413 112.044 76.922 110.924 74.1982C109.804 71.4743 108.161 68.9988 106.089 66.9134C104.017 64.828 101.556 63.1734 98.8479 62.0441C96.1398 60.9154 93.2364 60.3337 90.3044 60.3331C89.8092 60.3331 89.3194 60.3331 88.8349 60.3818C88.8672 59.8949 88.8834 59.4025 88.8834 58.9047C88.8828 55.716 88.2062 52.5643 86.8982 49.6594C85.5908 46.7546 83.6821 44.1633 81.2997 42.0584C78.9173 39.9534 76.1156 38.3832 73.0819 37.4523C70.0482 36.5215 66.8524 36.2514 63.7068 36.66C60.5609 37.0687 57.538 38.1467 54.8394 39.8222C52.1408 41.4978 49.8285 43.7323 48.0567 46.3769C46.2849 49.0215 45.0942 52.0154 44.564 55.1592C44.0338 58.3024 44.1763 61.5236 44.9821 64.6078C42.2849 62.6415 39.1839 61.3071 35.9068 60.7027C32.6297 60.0983 29.2596 60.2395 26.0438 61.1156C22.8279 61.9916 19.8481 63.5803 17.3227 65.7647C14.7974 67.9496 12.7908 70.6751 11.4501 73.7415C10.1094 76.8073 9.46872 80.1367 9.57498 83.4839C9.68125 86.8317 10.5318 90.1129 12.0642 93.0867C13.5967 96.0606 15.7721 98.6519 18.4308 100.671C21.0896 102.689 24.1642 104.083 27.429 104.752C28.7633 108.302 30.9719 111.455 33.8481 113.914C36.7244 116.372 40.1743 118.058 43.8749 118.811C47.5755 119.565 51.4058 119.362 55.0073 118.222C58.6088 117.083 61.8637 115.043 64.4674 112.295C67.1313 114.316 70.2123 115.71 73.4834 116.377C76.7545 117.042 80.1327 116.962 83.3688 116.142C86.6049 115.321 89.617 113.782 92.183 111.637C94.7489 109.491 96.8035 106.794 98.1955 103.745C102.43 102.134 106.076 99.2666 108.652 95.5238C111.228 91.7811 112.61 87.3392 112.616 82.7886Z" fill="white"/>
<path d="M523.172 401.998H202.093V394.963H523.172C524.1 394.963 524.99 395.334 525.646 395.993C526.302 396.653 526.671 397.548 526.671 398.481C526.671 399.413 526.302 400.308 525.646 400.967C524.99 401.627 524.1 401.998 523.172 401.998Z" fill="#426572"/>
<path d="M187.732 401.998H168.102C167.174 401.998 166.284 401.627 165.628 400.967C164.972 400.308 164.603 399.413 164.603 398.481C164.603 397.548 164.972 396.653 165.628 395.993C166.284 395.334 167.174 394.963 168.102 394.963H187.732C188.66 394.963 189.55 395.334 190.206 395.993C190.862 396.653 191.231 397.548 191.231 398.481C191.231 399.413 190.862 400.308 190.206 400.967C189.55 401.627 188.66 401.998 187.732 401.998Z" fill="#426572"/>
<path d="M155.361 401.998H149.106C148.179 401.998 147.289 401.627 146.633 400.967C145.976 400.308 145.608 399.413 145.608 398.481C145.608 397.548 145.976 396.653 146.633 395.993C147.289 395.334 148.179 394.963 149.106 394.963H155.361C156.289 394.963 157.179 395.334 157.835 395.993C158.491 396.653 158.86 397.548 158.86 398.481C158.86 399.413 158.491 400.308 157.835 400.967C157.179 401.627 156.289 401.998 155.361 401.998Z" fill="#426572"/>
<path d="M635.757 401.998H537.07V394.963H635.757C636.683 394.963 637.576 395.334 638.233 395.993C638.89 396.653 639.256 397.548 639.256 398.481C639.256 399.413 638.89 400.308 638.233 400.967C637.576 401.627 636.683 401.998 635.757 401.998Z" fill="#426572"/>
<path d="M131.212 401.998H32.5201V394.963H131.212C132.14 394.963 133.03 395.334 133.687 395.993C134.343 396.653 134.711 397.548 134.711 398.481C134.711 399.413 134.343 400.308 133.687 400.967C133.03 401.627 132.14 401.998 131.212 401.998Z" fill="#426572"/>
<path d="M146.43 127.397H539.762C540.706 127.397 541.641 127.584 542.514 127.947C543.386 128.31 544.179 128.842 544.847 129.514C545.515 130.185 546.044 130.982 546.406 131.859C546.767 132.736 546.953 133.676 546.953 134.626V385.429H139.239V134.626C139.239 133.676 139.425 132.736 139.786 131.859C140.148 130.982 140.678 130.185 141.345 129.514C142.013 128.842 142.806 128.31 143.679 127.947C144.551 127.584 145.486 127.397 146.43 127.397Z" fill="#EBF0F9"/>
<path d="M532.771 145.301H155.028V362.226H532.771V145.301Z" fill="#637F91"/>
<path d="M152.206 361.821H534.379C534.379 363.543 533.698 365.195 532.487 366.412C531.276 367.63 529.633 368.314 527.919 368.314H158.665C156.952 368.314 155.309 367.63 154.098 366.412C152.886 365.195 152.206 363.543 152.206 361.821Z" fill="white"/>
<g opacity="0.5">
<path opacity="0.5" d="M267.902 144.491L211.427 363.451H182.984L239.46 144.491H267.902Z" fill="#A7BCD5"/>
<path opacity="0.5" d="M340.401 144.491L283.92 363.451H224.279L280.755 144.491H340.401Z" fill="#A7BCD5"/>
</g>
<path d="M550.166 388.676H136.009V151.995C136.018 144.613 138.939 137.535 144.132 132.315C149.324 127.095 156.365 124.159 163.709 124.15H318.785V130.643H163.709C158.078 130.65 152.679 132.902 148.697 136.905C144.716 140.907 142.475 146.335 142.468 151.995V382.183H543.707V136.558C543.706 134.989 543.085 133.486 541.982 132.377C540.879 131.268 539.384 130.645 537.824 130.643H390.37V124.15H537.824C541.094 124.16 544.228 125.471 546.541 127.795C548.853 130.12 550.156 133.27 550.166 136.558V388.676Z" fill="#426572"/>
<path d="M87.8171 377.686H609.285V379.375C609.285 384.971 607.072 390.339 603.137 394.296C599.197 398.254 593.858 400.477 588.292 400.477H108.81C103.242 400.477 97.9027 398.254 93.9657 394.296C90.0288 390.339 87.8171 384.971 87.8171 379.375V377.686Z" fill="#EBF0F9"/>
<path opacity="0.5" d="M606.62 388.687C605.474 391.681 603.45 394.256 600.818 396.072C598.186 397.888 595.069 398.86 591.877 398.859H101.99C98.7985 398.86 95.6809 397.888 93.0487 396.072C90.4171 394.256 88.3943 391.681 87.2472 388.687H606.62Z" fill="#A7BCD5"/>
<path d="M585.865 402.923H106.383C99.9612 402.915 93.8044 400.348 89.2636 395.783C84.7227 391.218 82.1681 385.029 82.1611 378.573V373.639H610.087V378.573C610.081 385.029 607.525 391.218 602.987 395.783C598.444 400.348 592.286 402.915 585.865 402.923ZM88.6903 380.126C89.0784 384.576 91.1109 388.717 94.3869 391.734C97.6633 394.752 101.946 396.425 106.389 396.424H585.87C590.316 396.425 594.595 394.752 597.873 391.734C601.146 388.717 603.181 384.576 603.568 380.126H88.6903Z" fill="#426572"/>
<path d="M535.187 364.256H150.99V142.055H535.187V364.256ZM157.444 357.763H528.728V148.548H157.45L157.444 357.763Z" fill="#426572"/>
<path d="M599.569 197.399V257.228C599.564 258.516 599.047 259.75 598.142 260.661C597.233 261.573 596.006 262.089 594.724 262.097H489.041C488.363 262.098 487.691 261.955 487.071 261.675C486.211 261.294 485.48 260.669 484.967 259.878C484.454 259.086 484.18 258.161 484.181 257.217V197.399C484.179 196.412 484.476 195.447 485.031 194.634C485.587 193.82 486.375 193.195 487.292 192.843C487.845 192.627 488.433 192.516 489.025 192.518H594.692C595.866 192.521 596.996 192.948 597.879 193.72C598.761 194.492 599.337 195.557 599.504 196.722C599.542 196.946 599.564 197.172 599.569 197.399Z" fill="white"/>
<path d="M598.761 195.769V255.598C598.756 256.887 598.239 258.121 597.335 259.032C596.425 259.944 595.198 260.459 593.917 260.468H488.234C487.555 260.47 486.883 260.326 486.264 260.046C485.404 259.665 484.673 259.04 484.159 258.249C483.646 257.457 483.373 256.532 483.373 255.587V254.776H587.425C588.707 254.767 589.934 254.251 590.843 253.34C591.748 252.429 592.265 251.195 592.27 249.906V190.889H593.885C595.058 190.892 596.188 191.319 597.071 192.091C597.954 192.863 598.53 193.928 598.697 195.093C598.735 195.316 598.756 195.543 598.761 195.769Z" fill="#D6DEE9"/>
<path d="M593.901 264.543H488.234C487.098 264.545 485.975 264.303 484.94 263.834C483.511 263.196 482.298 262.155 481.446 260.837C480.595 259.519 480.142 257.982 480.144 256.41V196.587C480.152 194.979 480.631 193.409 481.521 192.073C482.411 190.738 483.674 189.695 485.149 189.076L485.688 188.784H485.946C486.682 188.567 487.445 188.457 488.212 188.46H593.879C595.828 188.467 597.706 189.177 599.181 190.461C600.651 191.745 601.609 193.518 601.889 195.456C601.943 195.83 601.97 196.208 601.97 196.587V256.416C601.975 258.106 601.447 259.754 600.468 261.129C599.72 262.18 598.735 263.038 597.593 263.632C596.452 264.226 595.187 264.538 593.901 264.543ZM487.265 195.283C487.06 195.433 486.893 195.63 486.778 195.858C486.663 196.085 486.603 196.337 486.603 196.592V256.416C486.602 256.733 486.694 257.043 486.868 257.309C487.04 257.574 487.288 257.783 487.577 257.909C487.783 258.003 488.008 258.05 488.234 258.05H593.901C594.165 258.049 594.418 257.985 594.649 257.864C594.881 257.742 595.08 257.567 595.225 257.352C595.424 257.077 595.526 256.748 595.526 256.41V196.587C595.532 196.518 595.532 196.449 595.526 196.381C595.478 195.986 595.284 195.624 594.988 195.361C594.692 195.097 594.31 194.95 593.912 194.947H488.234C488.083 194.947 487.932 194.968 487.787 195.012L487.265 195.283Z" fill="#426572"/>
<path d="M513.924 223.912C512.323 222.948 510.578 222.252 508.757 221.85C509.686 221.268 510.451 220.456 510.979 219.491C511.507 218.527 511.78 217.442 511.771 216.342C511.76 215.224 511.46 214.128 510.901 213.162C510.341 212.195 509.542 211.392 508.581 210.83C507.619 210.268 506.529 209.967 505.417 209.956C504.305 209.945 503.209 210.225 502.237 210.768C501.265 211.311 500.45 212.1 499.873 213.055C499.295 214.01 498.974 215.099 498.941 216.217C498.909 217.335 499.166 218.441 499.687 219.429C500.208 220.416 500.977 221.251 501.915 221.85C500.017 222.232 498.197 222.934 496.533 223.928C496.123 224.196 495.783 224.556 495.537 224.979C495.291 225.403 495.147 225.879 495.117 226.368V234.101C495.117 234.531 495.287 234.944 495.59 235.248C495.893 235.553 496.303 235.724 496.732 235.724H513.736C514.164 235.724 514.574 235.553 514.877 235.248C515.18 234.944 515.351 234.531 515.351 234.101V226.357C515.328 225.864 515.186 225.383 514.938 224.957C514.69 224.531 514.341 224.172 513.924 223.912Z" fill="#426572"/>
<path d="M581.757 202.636H525.077V209.129H581.757V202.636Z" fill="#426572"/>
<path d="M561.513 214.031H525.077V220.524H561.513V214.031Z" fill="#426572"/>
<path d="M580.95 236.416H525.077V242.91H580.95V236.416Z" fill="#426572"/>
<path d="M349.008 400.082C349.008 400.082 435.164 356.794 435.164 291.825V205.212L349.008 183.568L262.852 205.212V291.82C262.852 356.778 349.008 400.082 349.008 400.082Z" fill="#E8837E"/>
<path d="M366.089 392.106C360.553 395.776 354.834 399.161 348.955 402.246C348.955 402.246 262.8 358.958 262.8 293.983V207.376L281.639 202.641V276.062C281.639 332.661 338.556 374.98 366.089 392.106Z" fill="#D66765"/>
<path d="M347.286 403.707L345.843 402.982C344.95 402.533 323.682 391.754 302.082 372.751C289.33 361.534 279.157 349.792 271.841 337.839C262.589 322.726 257.9 307.246 257.9 291.846V202.679L347.286 180.213L348.071 180.407L436.671 202.673V291.819C436.671 307.246 431.983 322.726 422.73 337.812C415.415 349.765 405.241 361.507 392.49 372.724C370.889 391.727 349.622 402.484 348.728 402.955L347.286 403.707ZM264.359 207.749V291.819C264.359 306.023 268.725 320.362 277.343 334.436C284.34 345.831 294.072 357.08 306.334 367.865C318.922 378.837 332.652 388.411 347.286 396.418C361.96 388.386 375.726 378.781 388.345 367.773C400.58 356.994 410.312 345.761 417.266 334.398C425.879 320.329 430.185 306.028 430.185 291.846V207.749L347.286 186.906L264.359 207.749Z" fill="#426572"/>
<path d="M294.952 300.996L332.179 330.935L337.465 335.188C340.382 337.536 343.149 338.829 346.96 338.315C348.657 338.109 350.283 337.514 351.715 336.576C353.147 335.638 354.345 334.382 355.217 332.904L395.964 265.933L401.777 256.383C404.867 251.307 403.048 243.661 397.724 240.837C392.218 237.91 385.554 239.495 382.26 244.911L341.512 311.877L335.699 321.428L353.462 319.128L316.246 289.2L310.96 284.947C306.352 281.241 299.414 280.077 294.973 284.947C291.205 289.07 290.043 297.051 294.973 301.018L294.952 300.996Z" fill="white"/>
<path opacity="0.2" d="M201.189 186.679C204.951 179.58 207.261 171.796 207.982 163.786C208.703 155.775 207.82 147.701 205.387 140.038C202.953 132.376 199.017 125.282 193.811 119.173C188.606 113.066 182.236 108.067 175.077 104.474C167.919 100.881 160.117 98.765 152.132 98.252C144.147 97.739 136.141 98.8391 128.586 101.487C121.03 104.135 114.08 108.277 108.143 113.669C102.206 119.062 97.4035 125.595 94.0194 132.883C89.3456 141.706 86.9293 151.559 86.9879 161.554C87.0466 171.549 89.5786 181.373 94.3558 190.139C99.133 198.906 106.005 206.339 114.353 211.77C122.7 217.201 132.261 220.459 142.173 221.25C140.443 221.661 138.687 221.994 136.904 222.251C146.287 223.61 155.857 222.713 164.828 219.631C173.799 216.55 181.914 211.372 188.508 204.524C193.783 199.404 198.081 193.356 201.189 186.679Z" fill="#606060"/>
<path d="M140.235 207.187C173.322 207.187 200.145 180.224 200.145 146.963C200.145 113.702 173.322 86.7391 140.235 86.7391C107.148 86.7391 80.3257 113.702 80.3257 146.963C80.3257 180.224 107.148 207.187 140.235 207.187Z" fill="#A8EF9E"/>
<path d="M197.285 151.264C197.284 159.898 195.435 168.432 191.865 176.285C188.295 184.139 183.087 191.129 176.594 196.782C170.101 202.434 162.474 206.617 154.232 209.047C145.99 211.477 137.324 212.097 128.823 210.866C143.078 208.794 156.114 201.629 165.543 190.682C174.971 179.735 180.161 165.741 180.161 151.261C180.161 136.782 174.971 122.787 165.543 111.84C156.114 100.893 143.078 93.7283 128.823 91.657C137.325 90.4238 145.992 91.0434 154.235 93.4734C162.479 95.9035 170.106 100.087 176.6 105.741C183.093 111.394 188.302 118.385 191.872 126.239C195.442 134.094 197.29 142.628 197.291 151.264H197.285Z" fill="#A7E59C"/>
<path d="M138.809 213.295C126.321 213.297 114.112 209.575 103.729 202.601C93.3444 195.627 85.2509 185.714 80.4716 174.116C75.6917 162.518 74.4413 149.756 76.877 137.444C79.3132 125.131 85.3268 113.821 94.1572 104.944C102.988 96.0676 114.238 90.0225 126.487 87.5735C138.735 85.125 151.431 86.382 162.968 91.1869C174.506 95.9913 184.367 104.127 191.304 114.566C198.242 125.004 201.944 137.276 201.943 149.83C201.923 166.656 195.265 182.787 183.429 194.685C171.593 206.583 155.547 213.275 138.809 213.295ZM138.809 92.8529C127.598 92.8519 116.639 96.1926 107.318 102.453C97.9961 108.713 90.7305 117.611 86.4394 128.022C82.1488 138.433 81.0255 149.89 83.2119 160.943C85.3984 171.996 90.7962 182.148 98.7228 190.118C106.649 198.086 116.749 203.513 127.744 205.713C138.739 207.912 150.135 206.783 160.493 202.471C170.85 198.159 179.703 190.856 185.931 181.485C192.159 172.116 195.484 161.1 195.484 149.83C195.468 134.725 189.492 120.242 178.867 109.56C168.242 98.8786 153.835 92.8703 138.809 92.8529Z" fill="#426572"/>
<path d="M382.21 124.437H370.099V130.93H382.21V124.437Z" fill="#426572"/>
<path d="M362.287 124.437H329.636V130.93H362.287V124.437Z" fill="#426572"/>
<path d="M162.358 182.75C144.778 185.256 123.107 178.773 123.107 178.773L112.423 180.911C111.954 181.001 111.471 180.984 111.01 180.861C110.549 180.738 110.122 180.513 109.759 180.201C109.398 179.888 109.11 179.498 108.918 179.059C108.727 178.62 108.637 178.143 108.655 177.664C108.871 169.983 108.675 162.295 108.068 154.635C108.014 154.081 108.106 153.523 108.333 153.017C108.562 152.51 108.918 152.072 109.367 151.747C109.816 151.422 110.342 151.222 110.892 151.165C111.442 151.109 111.998 151.199 112.503 151.426C114.911 152.62 117.549 153.27 120.233 153.331C126.719 153.277 132.382 148.277 135.278 142.341C138.174 136.405 138.83 132.558 139.438 125.957C139.702 123.073 140.122 119.875 142.302 118.024C146.07 114.816 152.271 118.566 153.493 123.408C154.715 128.251 152.745 130.405 151.081 135.112C150.005 138.186 150.242 138.359 149.37 141.524C149.258 141.781 149.204 142.059 149.209 142.339C149.215 142.619 149.28 142.895 149.402 143.147C149.558 143.323 149.748 143.465 149.961 143.564C150.174 143.663 150.405 143.716 150.64 143.721C154.16 144.176 156.469 145.496 159.995 145.885C161.615 146.062 163.155 146.688 164.441 147.694C165.727 148.701 166.709 150.047 167.278 151.583V178.146C167.283 178.779 167.158 179.407 166.909 179.99C166.661 180.572 166.295 181.096 165.834 181.529C165.374 181.962 164.829 182.294 164.235 182.504C163.64 182.714 163.008 182.798 162.38 182.75H162.358Z" fill="#85D175"/>
<path fill-rule="evenodd" clip-rule="evenodd" d="M143.51 85.4388C138.473 79.4943 135.063 72.2093 135.633 64.0462C137.274 40.526 169.844 45.7002 176.18 57.5711C182.515 69.4421 181.762 99.5537 173.574 101.675C170.309 102.521 163.353 100.449 156.273 96.1591L160.717 127.763H134.477L143.51 85.4388Z" fill="#B28B67"/>
<path fill-rule="evenodd" clip-rule="evenodd" d="M161.224 43.8891C157.766 43.319 148.454 42.927 146.737 42.9273C145.64 42.9273 144.45 43.1793 143.8 42.1664C143.268 41.3369 143.463 39.9341 143.304 38.9715C143.12 37.8533 142.858 36.7496 142.593 35.6486C141.839 32.5157 140.698 29.5352 139.103 26.7368C136.109 21.4868 131.723 17.3744 126.187 14.9814C120.072 12.3391 113.153 11.7341 106.577 12.2701C99.5385 12.8434 93.1675 15.179 86.5225 17.3769C80.1901 19.4713 73.5576 20.2957 66.9346 19.2729C60.2617 18.2425 55.2197 14.6069 49.5912 11.1562C43.8293 7.62351 37.2444 5.31301 30.4327 5.84414C24.0743 6.34009 18.2139 8.97929 12.9561 12.5049C8.0368 15.8035 3.97775 19.7722 1.68611 25.3577C-0.77919 31.3662 -0.776925 37.9614 3.27711 43.2714C9.15327 50.9683 20.0621 52.9587 29.1379 52.7609C34.3874 52.6467 39.5431 51.6834 44.4993 49.9311C51.109 47.5941 56.8207 43.633 63.0043 40.4191C65.9062 38.911 68.9058 37.6724 72.0499 36.7802C75.1009 35.914 78.106 35.5168 80.8684 37.3695C83.7907 39.3295 86.4093 41.2549 89.7524 42.4819C92.9595 43.659 96.3566 44.3174 99.7734 44.2909C106.422 44.2393 112.975 42.157 119.432 40.7623C124.697 39.6251 130.331 38.4917 135.699 39.5849C137.939 40.0411 141.211 40.9829 142.02 43.323C128.403 45.8038 123.055 62.7321 126.894 75.1591C128.966 81.8664 141.42 89.7072 146.262 86.181C149.33 83.9471 147.467 81.0144 146.262 79.0784C143.954 75.3709 143.164 70.6085 147.435 68.0272C151.119 65.801 154.993 71.0877 155.066 71.0819C156.079 71.0017 164.828 66.0275 170.856 58.7689C176.803 59.1233 177.706 55.1815 176.286 51.9579C174.866 48.7342 166.002 44.6773 161.224 43.8891Z" fill="#191847"/>
<path fill-rule="evenodd" clip-rule="evenodd" d="M113.315 218.984C115.287 246.031 242.285 325.662 243.026 327.896C243.355 328.889 230.179 360.278 203.496 422.064L214.598 426.401C255.524 360.965 274.936 324.761 272.834 317.789C269.825 307.806 236.979 274.967 174.298 219.272L113.315 218.984Z" fill="#B28B67"/>
<path fill-rule="evenodd" clip-rule="evenodd" d="M206.418 408.11L224.543 414.743C262.762 371.394 277.743 335.627 275.012 317.403C273.19 305.254 240.458 272.47 176.815 219.05L112.015 219.05C114.226 281.688 231.938 328.134 233.513 330.803C235.087 333.473 219.593 359.615 206.418 408.11Z" fill="#561D5E"/>
<path fill-rule="evenodd" clip-rule="evenodd" d="M198.494 419.844C196.398 422.453 195.121 424.51 194.664 426.017C194.107 427.85 193.612 430.639 193.176 434.385C195.374 435.184 215.128 442.36 252.439 455.916C255.473 451.55 255.391 448.569 252.192 446.97C248.993 445.372 246.344 444.016 244.246 442.903L220.305 421.017C219.845 420.596 219.154 420.601 218.762 421.028C218.755 421.035 218.748 421.042 218.742 421.05L215.711 424.561C212.218 424.831 209.512 424.618 207.592 423.92C206.031 423.353 204.062 421.961 201.682 419.743L201.682 419.743C200.769 418.892 199.386 418.887 198.593 419.731C198.559 419.768 198.526 419.806 198.494 419.844Z" fill="#E4E4E4"/>
<path fill-rule="evenodd" clip-rule="evenodd" d="M127.917 218.985L71.343 355.516L15.7391 470.942H28.8578L172.386 218.985H127.917Z" fill="#997659"/>
<path fill-rule="evenodd" clip-rule="evenodd" d="M14.9544 465.613C13.7312 468.895 13.1196 471.351 13.1196 472.981C13.1196 474.963 13.4481 477.855 14.105 481.657C16.3921 481.657 36.947 481.657 75.7697 481.657C77.3722 476.332 76.4472 473.457 72.9947 473.032C69.5422 472.607 66.6741 472.224 64.3905 471.882L35.7293 459.037C35.1778 458.79 34.5314 459.039 34.2856 459.594C34.2814 459.603 34.2773 459.613 34.2734 459.622L32.431 464.115C29.2349 465.614 26.6378 466.363 24.6395 466.363C23.016 466.363 20.7739 465.704 17.9132 464.386L17.9133 464.386C16.8155 463.88 15.5176 464.365 15.0143 465.468C14.9926 465.516 14.9726 465.564 14.9544 465.613Z" fill="#E4E4E4"/>
<path fill-rule="evenodd" clip-rule="evenodd" d="M20.7603 446.964L49.9103 452.459C72.449 419.149 166.774 282.567 177.116 218.985H112.222C77.685 264.948 42.2443 413.103 20.7603 446.964Z" fill="#561D5E"/>
<path fill-rule="evenodd" clip-rule="evenodd" d="M226.315 188.888L265.931 171.399C272.871 164.447 279.572 159.164 286.035 155.548C287.968 154.93 291.269 154.743 287.747 159.915C284.224 165.087 280.75 170.686 282.158 172.499C283.565 174.312 287.643 172.311 289.253 175.259C290.327 177.224 283.454 179.575 268.635 182.311L238.965 205.178L226.315 188.888ZM66.1543 193.705L88.5582 198.173C66.0273 240.383 53.9444 262.753 52.3095 265.286C48.6309 270.984 52.0631 281.428 53.3309 286.927C45.3772 288.789 48.5139 276.754 38.4486 279.267C29.2614 281.56 21.4719 287.446 12.9052 279.508C11.852 278.532 11.081 275.482 14.672 273.917C23.6183 270.02 36.8358 262.721 38.979 259.887C41.9017 256.023 50.9601 233.962 66.1543 193.705Z" fill="#B28B67"/>
<path fill-rule="evenodd" clip-rule="evenodd" d="M149.45 109.443L158.904 107.813C179.496 127.893 187.899 176.134 201.622 182.519C214.596 188.556 232.989 182.714 254.851 174.826L261.546 189.863C241.682 211.466 199.365 229.717 182.212 219.298C154.787 202.64 148.456 143.142 149.45 109.443Z" fill="#F5D400"/>
<path fill-rule="evenodd" clip-rule="evenodd" d="M108.238 228.874C146.145 228.874 174.029 228.874 191.889 228.874C195.711 228.874 194.991 223.326 194.438 220.526C188.061 188.214 163.167 153.382 163.167 107.386L139.038 103.583C119.081 135.849 112.179 175.575 108.238 228.874Z" fill="#DDE3E9"/>
<path fill-rule="evenodd" clip-rule="evenodd" d="M99.8944 196.159C82.8416 227.08 68.5078 249.342 56.893 262.945L39.3591 259.492C50.6537 189.078 83.3612 137.108 137.482 103.583H141.837L147.035 103.583C168.697 177.809 174.668 227.266 164.95 251.954H89.6514C90.8427 233.89 94.6625 214.786 99.8944 196.159H99.8944Z" fill="#F5D400"/>
<defs>
<linearGradient id="paint0_linear_124_217" x1="10.2746" y1="200.851" x2="684.88" y2="200.851" gradientUnits="userSpaceOnUse">
<stop stop-color="#E534FE"/>
<stop offset="1" stop-color="#F5D400"/>
</linearGradient>
</defs>
</svg>
