<svg width="36" height="22" viewBox="0 0 36 22" fill="none" xmlns="http://www.w3.org/2000/svg">
<path d="M2.40601 0.552632C1.38242 0.552632 0.552632 1.38242 0.552632 2.40602C0.552632 3.42961 1.38242 4.2594 2.40601 4.2594H33.594C34.6176 4.2594 35.4474 3.42961 35.4474 2.40602C35.4474 1.38242 34.6176 0.552632 33.594 0.552632H2.40601ZM2.40601 8.98872C1.38242 8.98872 0.552632 9.81851 0.552632 10.8421C0.552632 11.8657 1.38242 12.6955 2.40601 12.6955H33.594C34.6176 12.6955 35.4474 11.8657 35.4474 10.8421C35.4474 9.81851 34.6176 8.98872 33.594 8.98872H2.40601ZM2.40601 17.4248C1.38242 17.4248 0.552632 18.2546 0.552632 19.2782C0.552632 20.3018 1.38242 21.1316 2.40601 21.1316H33.594C34.6176 21.1316 35.4474 20.3018 35.4474 19.2782C35.4474 18.2546 34.6176 17.4248 33.594 17.4248H2.40601Z" fill="#561D5E" stroke="#561D5E" stroke-width="0.894737"/>
</svg>
